<?xml version="1.0" encoding="UTF-8"?>
<svg version="1.1" xmlns="http://www.w3.org/2000/svg" width="685" height="384">
<path d="M0 0 C226.05 0 452.1 0 685 0 C685 126.72 685 253.44 685 384 C458.95 384 232.9 384 0 384 C0 257.28 0 130.56 0 0 Z " fill="#D7EBE1" transform="translate(0,0)"/>
<path d="M0 0 C1.06863281 -0.02449219 2.13726562 -0.04898438 3.23828125 -0.07421875 C10.99170772 -0.10282918 16.58438499 0.96560434 22.43359375 6.2265625 C23.11615234 7.10441406 23.11615234 7.10441406 23.8125 8 C24.28558594 8.59039062 24.75867188 9.18078125 25.24609375 9.7890625 C28.84644713 14.84699839 27.95973592 21.44317897 27.375 27.375 C25.59782549 32.10228419 22.76216176 35.77520044 18.375 38.375 C19.00303989 41.57764407 20.12419747 43.81008266 21.9140625 46.52734375 C22.41164062 47.30400391 22.90921875 48.08066406 23.421875 48.88085938 C24.4745005 50.50278852 25.53442529 52.12000358 26.6015625 53.73242188 C27.0965625 54.51037109 27.5915625 55.28832031 28.1015625 56.08984375 C28.56127441 56.79230225 29.02098633 57.49476074 29.49462891 58.21850586 C30.61617909 60.96577507 30.18168968 62.57060314 29.375 65.375 C26.9 65.87 26.9 65.87 24.375 66.375 C20.92251147 62.27863901 17.74154795 58.23676393 15.328125 53.4375 C13.26612767 49.41160498 11.30897502 45.84731906 8.375 42.375 C4.11901658 41.11358805 0.67025216 41.39385103 -3.625 42.375 C-3.63958252 43.03097168 -3.65416504 43.68694336 -3.66918945 44.36279297 C-3.74351414 47.32580031 -3.84022369 50.28766117 -3.9375 53.25 C-3.97133789 54.79880859 -3.97133789 54.79880859 -4.00585938 56.37890625 C-4.04130859 57.36503906 -4.07675781 58.35117188 -4.11328125 59.3671875 C-4.13946533 60.27839355 -4.16564941 61.18959961 -4.19262695 62.12841797 C-4.33531006 62.86979004 -4.47799316 63.61116211 -4.625 64.375 C-7.625 66.375 -7.625 66.375 -9.6875 66.125 C-11.625 65.375 -11.625 65.375 -13.625 63.375 C-13.87896729 60.83215332 -13.87896729 60.83215332 -13.88378906 57.58007812 C-13.89009338 56.3654187 -13.89639771 55.15075928 -13.90289307 53.89929199 C-13.8988446 52.58158813 -13.89479614 51.26388428 -13.890625 49.90625 C-13.89197176 48.54626394 -13.89391239 47.18627835 -13.89642334 45.82629395 C-13.89937409 42.97480693 -13.89507864 40.12344513 -13.88574219 37.27197266 C-13.87434754 33.61317223 -13.88090729 29.9546652 -13.89288712 26.29587555 C-13.90010712 23.48722108 -13.89781717 20.67863641 -13.89263153 17.86997986 C-13.89064461 15.86355398 -13.89672863 13.8571254 -13.90289307 11.85070801 C-13.89658875 10.63604858 -13.89028442 9.42138916 -13.88378906 8.16992188 C-13.88219788 7.09673706 -13.88060669 6.02355225 -13.87896729 4.91784668 C-13.19094542 -1.97097022 -5.25041651 0.00619884 0 0 Z " fill="#33868F" transform="translate(195.625,179.625)"/>
<path d="M0 0 C1.051875 -0.04125 2.10375 -0.0825 3.1875 -0.125 C11.03072573 -0.2026557 16.35450936 1.56033196 22.5 6.5 C26.73477638 11.17088566 27.80455001 15.95991611 27.71484375 22.08984375 C27.23006881 27.52813715 25.467364 31.36747629 21.9375 35.5 C19.5 37.5 19.5 37.5 17.5 37.5 C19.18384883 43.68378968 22.50569427 48.41857126 26.04296875 53.66601562 C30.35175522 60.27994005 30.35175522 60.27994005 29.5 64.5 C28.84 65.16 28.18 65.82 27.5 66.5 C25.07885742 66.39794922 25.07885742 66.39794922 22.5 65.5 C20.77075195 63.59814453 20.77075195 63.59814453 19.23828125 61.1328125 C18.67689453 60.24722656 18.11550781 59.36164063 17.53710938 58.44921875 C16.96798828 57.51722656 16.39886719 56.58523437 15.8125 55.625 C15.23177734 54.70074219 14.65105469 53.77648437 14.05273438 52.82421875 C12.97508701 51.10745798 11.90383909 49.3866519 10.84106445 47.66064453 C9.76037889 45.91950722 8.63672139 44.20508208 7.5 42.5 C4.60391601 42.13501966 4.60391601 42.13501966 1.375 42.3125 C0.27929688 42.33957031 -0.81640625 42.36664063 -1.9453125 42.39453125 C-2.78835937 42.42933594 -3.63140625 42.46414062 -4.5 42.5 C-4.51981934 43.15597168 -4.53963867 43.81194336 -4.56005859 44.48779297 C-4.65512507 47.45061069 -4.76487752 50.41270532 -4.875 53.375 C-4.92140625 54.92380859 -4.92140625 54.92380859 -4.96875 56.50390625 C-5.00742188 57.49003906 -5.04609375 58.47617188 -5.0859375 59.4921875 C-5.1173584 60.40339355 -5.1487793 61.31459961 -5.18115234 62.25341797 C-5.5 64.5 -5.5 64.5 -7.5 66.5 C-12.05555556 65.94444444 -12.05555556 65.94444444 -13.5 64.5 C-13.60445557 62.57782922 -13.63855137 60.65180181 -13.64526367 58.72680664 C-13.65164352 57.49205093 -13.65802338 56.25729523 -13.66459656 54.98512268 C-13.66612512 53.62680093 -13.66723914 52.26847866 -13.66796875 50.91015625 C-13.6711797 49.52632105 -13.67454365 48.1424862 -13.67805481 46.75865173 C-13.68405224 43.85414849 -13.68589409 40.94967502 -13.68530273 38.04516602 C-13.68520109 34.31797854 -13.69885272 30.59098147 -13.71607494 26.86383915 C-13.7271778 24.00458392 -13.72922247 21.14537497 -13.72869301 18.28610039 C-13.72987574 16.91174094 -13.73431388 15.53738039 -13.74202538 14.16304207 C-13.75178998 12.24291548 -13.74769215 10.32273338 -13.74291992 8.40258789 C-13.74434494 7.30862198 -13.74576996 6.21465607 -13.74723816 5.08753967 C-13.08890258 -1.80245427 -5.27714478 0.05025852 0 0 Z " fill="#2A7E8B" transform="translate(142.5,179.5)"/>
<path d="M0 0 C4.43305908 4.10332741 7.72962063 8.2710547 8.3359375 14.390625 C8.41843747 22.54162244 8.45634447 29.25574564 2.609375 35.48046875 C-4.00197889 41.41328896 -9.96597427 42.56151749 -18.5859375 42.34375 C-25.9394354 41.60335204 -30.13779221 38.45980882 -34.7734375 32.87890625 C-39.17812584 26.13159705 -38.82832257 18.40210374 -37.640625 10.65625 C-35.82645111 4.47825242 -31.07304111 0.66873908 -26 -3 C-17.20362939 -7.49176372 -7.83108567 -5.40074874 0 0 Z " fill="#58B2AD" transform="translate(547,204)"/>
<path d="M0 0 C4.85603515 3.11115472 7.5169655 8.11339649 9.3046875 13.4765625 C9.42101479 14.99422789 9.47964989 16.5169971 9.4921875 18.0390625 C9.50636719 18.82410156 9.52054687 19.60914063 9.53515625 20.41796875 C9.3046875 22.4765625 9.3046875 22.4765625 7.3046875 24.4765625 C4.79547904 24.65151856 2.39843809 24.70825819 -0.109375 24.671875 C-0.83901459 24.6690451 -1.56865417 24.66621521 -2.32040405 24.66329956 C-4.65387278 24.65209252 -6.98695953 24.6269876 -9.3203125 24.6015625 C-10.90103613 24.59153335 -12.48176577 24.58240739 -14.0625 24.57421875 C-17.94025164 24.55215155 -21.81771728 24.51761865 -25.6953125 24.4765625 C-25.251875 25.58257812 -24.8084375 26.68859375 -24.3515625 27.828125 C-24.10212891 28.45025879 -23.85269531 29.07239258 -23.59570312 29.71337891 C-21.67255971 33.47936094 -18.57126685 35.18457772 -14.6953125 36.4765625 C-10.22773499 36.774401 -7.06305935 36.85738648 -3.0078125 34.9140625 C0.47878017 33.40101285 1.77635952 33.30045317 5.3046875 34.4765625 C5.7996875 36.4565625 5.7996875 36.4565625 6.3046875 38.4765625 C5.01371969 39.29017245 3.72188875 40.10241296 2.4296875 40.9140625 C1.71039063 41.36652344 0.99109375 41.81898438 0.25 42.28515625 C-5.27460322 45.66869838 -11.37737497 44.96255769 -17.6953125 44.4765625 C-23.94531391 42.85038659 -28.21095549 38.79536292 -31.6953125 33.4765625 C-35.11163644 27.15958615 -35.80459625 20.84106583 -34.0390625 13.89453125 C-31.36197108 6.19789343 -27.31503371 2.48751873 -20.3203125 -1.3984375 C-13.09143749 -3.64188147 -6.94702133 -3.00821173 0 0 Z " fill="#41959A" transform="translate(325.6953125,201.5234375)"/>
<path d="M0 0 C2.5625 0.1875 2.5625 0.1875 4.5625 2.1875 C4.78955078 4.43408203 4.78955078 4.43408203 4.7578125 7.1953125 C4.74814453 8.67451172 4.74814453 8.67451172 4.73828125 10.18359375 C4.72152344 11.21613281 4.70476562 12.24867188 4.6875 13.3125 C4.67847656 14.35277344 4.66945313 15.39304688 4.66015625 16.46484375 C4.63653747 19.03929092 4.60360149 21.61328212 4.5625 24.1875 C5.24771729 23.80327881 5.93293457 23.41905762 6.63891602 23.02319336 C12.30014585 19.90315826 16.11381857 18.2662598 22.5625 19.1875 C28.26491097 20.99230347 32.84759104 23.37997076 36.5625 28.1875 C40.18352578 35.53476296 39.97837862 42.48242706 39.875 50.5625 C39.87822266 51.84511719 39.88144531 53.12773437 39.88476562 54.44921875 C39.82975969 63.92024031 39.82975969 63.92024031 37.5625 66.1875 C35.0625 66.4375 35.0625 66.4375 32.5625 66.1875 C29.7928139 63.4178139 30.28052347 61.69970488 30.21875 57.82421875 C30.18910156 56.54482422 30.15945313 55.26542969 30.12890625 53.94726562 C30.1056804 52.58986197 30.08355561 51.23243905 30.0625 49.875 C30.02118685 47.23254767 29.96729498 44.59140465 29.90625 41.94921875 C29.87821289 40.185177 29.87821289 40.185177 29.84960938 38.38549805 C29.5639099 35.20320434 29.08567363 32.98959458 27.5625 30.1875 C22.51158916 28.06611745 17.94324881 27.75356864 12.5625 28.1875 C8.97697119 29.82437185 7.76934945 30.87722583 5.5625 34.1875 C5.22528006 37.35537358 5.22528006 37.35537358 5.21875 40.97265625 C5.2041272 41.62954941 5.18950439 42.28644257 5.17443848 42.96324158 C5.1122301 45.76997755 5.07251019 48.57693034 5.03076172 51.3840332 C4.99707125 53.43464371 4.95195898 55.48478423 4.90625 57.53515625 C4.88755859 58.76242432 4.86886719 59.98969238 4.84960938 61.25415039 C4.5625 64.1875 4.5625 64.1875 2.5625 66.1875 C-0.5625 65.8125 -0.5625 65.8125 -3.4375 65.1875 C-3.46062684 56.86021053 -3.47841683 48.53293437 -3.48931217 40.20562077 C-3.49454026 36.33929882 -3.50163654 32.47299879 -3.51293945 28.60668945 C-3.523771 24.87846599 -3.5297774 21.15026366 -3.53237724 17.42202568 C-3.53423101 15.99660344 -3.53785071 14.57118241 -3.54323006 13.14576912 C-3.55044393 11.15586592 -3.55090808 9.16594166 -3.55102539 7.17602539 C-3.553246 6.04129288 -3.55546661 4.90656036 -3.55775452 3.73744202 C-3.39902436 0.37164155 -3.3454678 0.25734368 0 0 Z " fill="#4BA4A2" transform="translate(399.4375,179.8125)"/>
<path d="M0 0 C1.10794922 -0.02449219 2.21589844 -0.04898438 3.35742188 -0.07421875 C11.08861248 -0.10165053 17.957618 0.66375616 23.81469727 6.12548828 C28.64057672 11.34326751 30.18945506 16.01028618 30.203125 23.13671875 C30.20699219 25.06161133 30.20699219 25.06161133 30.2109375 27.02539062 C30.20465332 28.01889526 30.20465332 28.01889526 30.19824219 29.0324707 C30.18747688 31.06686848 30.1981905 33.10039408 30.2109375 35.13476562 C30.20835937 36.41416016 30.20578125 37.69355469 30.203125 39.01171875 C30.20086914 40.18436279 30.19861328 41.35700684 30.19628906 42.56518555 C29.9375 45.375 29.9375 45.375 27.9375 47.375 C25.4375 47.625 25.4375 47.625 22.9375 47.375 C20.16069595 44.59819595 20.68380669 42.89518688 20.6640625 39.01171875 C20.6434375 37.73232422 20.6228125 36.45292969 20.6015625 35.13476562 C20.57901234 33.10059375 20.5625123 31.06676159 20.55664062 29.0324707 C20.54707776 27.06706205 20.51209439 25.10182946 20.4765625 23.13671875 C20.46834473 21.96069092 20.46012695 20.78466309 20.45166016 19.57299805 C19.83805281 15.7564536 18.61065797 14.1147546 15.9375 11.375 C11.90552323 9.02301355 7.510148 8.62479994 2.9375 9.375 C-1.31916699 11.61662425 -1.31916699 11.61662425 -4.0625 15.375 C-4.19356542 17.60182173 -4.26533447 19.83224401 -4.30859375 22.0625 C-4.34152078 23.41406925 -4.37473261 24.7656316 -4.40820312 26.1171875 C-4.45569812 28.25027893 -4.50015307 30.38334005 -4.53930664 32.51660156 C-4.57894232 34.5738595 -4.63049284 36.63055184 -4.68359375 38.6875 C-4.7086499 39.92113281 -4.73370605 41.15476563 -4.75952148 42.42578125 C-5.0625 45.375 -5.0625 45.375 -7.0625 47.375 C-12.63068182 46.80681818 -12.63068182 46.80681818 -14.0625 45.375 C-14.16551414 44.03506384 -14.20098453 42.68982035 -14.20776367 41.34594727 C-14.21414352 40.49158585 -14.22052338 39.63722443 -14.22709656 38.75697327 C-14.22820938 37.82783615 -14.2293222 36.89869904 -14.23046875 35.94140625 C-14.23379715 34.99313461 -14.23712555 34.04486298 -14.24055481 33.06785583 C-14.24562819 31.05785611 -14.24796301 29.04784792 -14.24780273 27.0378418 C-14.24998822 23.95412381 -14.26813683 20.87076394 -14.28710938 17.78710938 C-14.29004334 15.8385429 -14.29202812 13.88997471 -14.29296875 11.94140625 C-14.30015427 11.01429337 -14.30733978 10.08718048 -14.31474304 9.13197327 C-14.31166641 8.27445969 -14.30858978 7.41694611 -14.30541992 6.53344727 C-14.30684494 5.77701431 -14.30826996 5.02058136 -14.30973816 4.2412262 C-13.48415529 -1.99051565 -4.6153705 0.00524176 0 0 Z " fill="#55ADA9" transform="translate(467.0625,198.625)"/>
<path d="M0 0 C1.99609375 1.2890625 1.99609375 1.2890625 3.99609375 3.2890625 C4.12109375 5.9140625 4.12109375 5.9140625 3.99609375 8.2890625 C1.37109375 9.0390625 1.37109375 9.0390625 -2.00390625 9.2890625 C-2.89078125 8.6496875 -3.77765625 8.0103125 -4.69140625 7.3515625 C-9.37456466 4.43563368 -13.61358067 4.77287748 -19.00390625 5.2890625 C-19.99390625 5.6190625 -20.98390625 5.9490625 -22.00390625 6.2890625 C-21.67390625 8.2690625 -21.34390625 10.2490625 -21.00390625 12.2890625 C-20.45863281 12.47082031 -19.91335938 12.65257812 -19.3515625 12.83984375 C-17.76249923 13.36953151 -16.17399758 13.90090588 -14.5859375 14.43359375 C-12.92079674 14.98528184 -11.25170824 15.52525994 -9.578125 16.05078125 C-4.48826267 17.66756105 -0.16740156 19.27477376 3.80859375 22.9765625 C5.55288889 26.37334778 5.53471631 29.59248853 4.99609375 33.2890625 C3.20801042 37.42988705 0.66481785 39.72095563 -3.00390625 42.2890625 C-10.4934076 44.78556295 -19.75845904 44.42239883 -26.81640625 40.9140625 C-29.26175441 39.51320979 -31.00599346 38.28697529 -33.00390625 36.2890625 C-32.44835069 31.73350694 -32.44835069 31.73350694 -31.00390625 30.2890625 C-28.81640625 29.9765625 -28.81640625 29.9765625 -26.00390625 30.2890625 C-25.17890625 30.9490625 -24.35390625 31.6090625 -23.50390625 32.2890625 C-18.86354167 35.72366305 -12.47322942 34.91704887 -7.00390625 34.2890625 C-6.01390625 33.6290625 -5.02390625 32.9690625 -4.00390625 32.2890625 C-4.18806057 29.34814663 -4.18806057 29.34814663 -5.00390625 26.2890625 C-8.16664158 24.15814153 -11.61835223 23.68488542 -15.31640625 22.9765625 C-21.76315027 21.54234304 -26.30732383 19.80634392 -30.44140625 14.4140625 C-31.30741175 11.14248618 -31.41138978 8.6653546 -31.00390625 5.2890625 C-23.73593324 -6.16350104 -11.03385836 -6.0377273 0 0 Z " fill="#60BBB1" transform="translate(598.00390625,202.7109375)"/>
<path d="M0 0 C4.01061526 1.75838542 6.39721616 4.16388048 8.9375 7.6875 C10.58444802 12.82210264 11.06895508 17.9195703 9.2734375 23.09375 C7.2028171 27.06664768 4.94726346 29.05185276 1 31 C-3.84373283 31.85128275 -8.83589899 32.15294347 -13.265625 29.79296875 C-17.00255472 26.69194514 -19.62676302 23.59095904 -20.3359375 18.66796875 C-20.43290647 12.51043937 -19.75851471 8.9454141 -16 4 C-11.16989373 -0.48509868 -6.32531617 -1.15096734 0 0 Z " fill="#D4ECE1" transform="translate(537,207)"/>
<path d="M0 0 C2.23416931 1.87212908 4.0539845 3.81073257 6 6 C5.0593406 8.43003677 4.50615495 9.72074209 2.1875 11 C-1.12073582 11 -2.57251489 9.11626907 -5 7 C-10.05800004 5.31399999 -14.36758216 5.41479361 -19.3125 7.1875 C-22.3774344 9.25454878 -23.38976501 10.696242 -25 14 C-25.76273906 19.49034693 -26.30124928 25.84921266 -23.1875 30.6875 C-20.49523613 33.53360752 -18.92634397 34.91882553 -14.96875 35.265625 C-13.8240625 35.26046875 -12.679375 35.2553125 -11.5 35.25 C-10.3553125 35.25515625 -9.210625 35.2603125 -8.03125 35.265625 C-4.82333837 35.22885568 -4.82333837 35.22885568 -2 33 C0.5625 32.75 0.5625 32.75 3 33 C5 35 5 35 5.0625 36.875 C3.39370422 40.21259156 0.29540403 41.54674729 -3 43 C-9.1645717 44.92405523 -16.37708805 45.11358169 -22.3125 42.4375 C-28.28883578 38.94722193 -32.41724757 33.74517175 -34.5234375 27.16015625 C-36.1543157 19.76773295 -35.29571992 13.89794849 -31.625 7.265625 C-24.21553753 -3.06487556 -11.1381512 -6.37466515 0 0 Z " fill="#489D9E" transform="translate(377,202)"/>
<path d="M0 0 C4.55555556 0.55555556 4.55555556 0.55555556 6 2 C6.07271741 4.35313555 6.08370868 6.70833668 6.0625 9.0625 C6.05347656 10.35285156 6.04445313 11.64320313 6.03515625 12.97265625 C6.02355469 13.97167969 6.01195312 14.97070312 6 16 C6.62648438 15.97679687 7.25296875 15.95359375 7.8984375 15.9296875 C8.71570313 15.91164062 9.53296875 15.89359375 10.375 15.875 C11.18710937 15.85179687 11.99921875 15.82859375 12.8359375 15.8046875 C15 16 15 16 17 18 C16.625 20.625 16.625 20.625 16 23 C12.7 23 9.4 23 6 23 C6.10995451 26.9172412 6.24056734 30.83352845 6.375 34.75 C6.4059375 35.86117187 6.436875 36.97234375 6.46875 38.1171875 C6.50742187 39.18710938 6.54609375 40.25703125 6.5859375 41.359375 C6.6173584 42.34389648 6.6487793 43.32841797 6.68115234 44.34277344 C7.00503261 47.04194102 7.52018851 48.73182588 9 51 C11.1402048 51.87579911 11.1402048 51.87579911 13.5625 52.1875 C17.93629344 52.93629344 17.93629344 52.93629344 19 54 C19.1875 56.4375 19.1875 56.4375 19 59 C17 61 17 61 13.3125 61.375 C8.8653377 61.23779173 5.25863431 60.09570259 2 57 C-2.30885785 50.96841067 -2.56494079 46.17828215 -2.4609375 38.88671875 C-2.46002106 37.83595657 -2.45910461 36.7851944 -2.4581604 35.70259094 C-2.45214172 33.4930059 -2.43644823 31.28342836 -2.41162109 29.07397461 C-2.3749316 25.68117484 -2.37060326 22.28946254 -2.37109375 18.89648438 C-2.36126887 16.74738634 -2.34961462 14.59829572 -2.3359375 12.44921875 C-2.33371185 11.4315593 -2.33148621 10.41389984 -2.32919312 9.36540222 C-2.31643341 8.42715103 -2.30367371 7.48889984 -2.29052734 6.5222168 C-2.28290375 5.69505661 -2.27528015 4.86789642 -2.26742554 4.01567078 C-2 2 -2 2 0 0 Z " fill="#368C93" transform="translate(264,185)"/>
<path d="M0 0 C6.12330969 0.0374133 9.58824987 0.50485785 14.375 4.3125 C17.20292793 8.5543919 17.15622286 12.33123743 16.375 17.3125 C14.69487353 20.43541165 12.59170326 22.70414837 9.375 24.3125 C6.67670926 24.41041023 4.01015539 24.4515625 1.3125 24.4375 C0.56677734 24.44136719 -0.17894531 24.44523437 -0.94726562 24.44921875 C-6.49836499 24.43913501 -6.49836499 24.43913501 -7.625 23.3125 C-7.7241657 21.68992456 -7.75579777 20.06310169 -7.7578125 18.4375 C-7.75910156 17.45265625 -7.76039063 16.4678125 -7.76171875 15.453125 C-7.75785156 14.41671875 -7.75398437 13.3803125 -7.75 12.3125 C-7.75580078 10.75789062 -7.75580078 10.75789062 -7.76171875 9.171875 C-7.76042969 8.18703125 -7.75914062 7.2021875 -7.7578125 6.1875 C-7.75668457 5.27742187 -7.75555664 4.36734375 -7.75439453 3.4296875 C-7.47629819 -1.12059826 -3.80771705 0.07615434 0 0 Z " fill="#D0E9E0" transform="translate(144.625,187.6875)"/>
<path d="M0 0 C6.58656444 0.06485676 10.28728902 0.92414778 15.1875 5.4375 C17.29825914 9.09073697 17.60123639 12.17884551 16.8125 16.25 C15.13480059 19.60539882 13.96869072 21.64202092 10.62109375 23.40234375 C7.1651239 24.44538333 4.16795392 24.47898535 0.5625 24.4375 C-1.30148438 24.42783203 -1.30148438 24.42783203 -3.203125 24.41796875 C-6.1875 24.25 -6.1875 24.25 -7.1875 23.25 C-7.2866657 21.62742456 -7.31829777 20.00060169 -7.3203125 18.375 C-7.32160156 17.39015625 -7.32289063 16.4053125 -7.32421875 15.390625 C-7.32035156 14.35421875 -7.31648437 13.3178125 -7.3125 12.25 C-7.31830078 10.69539062 -7.31830078 10.69539062 -7.32421875 9.109375 C-7.32292969 8.12453125 -7.32164062 7.1396875 -7.3203125 6.125 C-7.31918457 5.21492187 -7.31805664 4.30484375 -7.31689453 3.3671875 C-7.04588003 -1.06722331 -3.7478739 0.05081863 0 0 Z " fill="#D3EBE2" transform="translate(198.1875,187.75)"/>
<path d="M0 0 C3.59597215 2.01374441 5.65353512 4.08301125 7 8 C7 9.32 7 10.64 7 12 C-1.91 12 -10.82 12 -20 12 C-18.98295901 5.89775404 -18.76999157 4.6567739 -14.30078125 1.140625 C-9.72610475 -1.12729612 -4.93915081 -0.82786903 0 0 Z " fill="#D0ECE3" transform="translate(320,207)"/>
<path d="M0 0 C0 0.99 0 1.98 0 3 C-0.96679688 3.87398437 -0.96679688 3.87398437 -1.953125 4.765625 C-4.68762281 7.75061116 -4.59035212 9.75880301 -4.75 13.75 C-4.80671875 14.92046875 -4.8634375 16.0909375 -4.921875 17.296875 C-4.94765625 18.18890625 -4.9734375 19.0809375 -5 20 C-5.66 19.67 -6.32 19.34 -7 19 C-7.50373716 12.04562862 -7.15965645 7.7046717 -3 2 C-2.01 1.34 -1.02 0.68 0 0 Z " fill="#C0EAE1" transform="translate(524,209)"/>
</svg>
